<?xml version="1.0" encoding="UTF-8"?>
<svg version="1.1" xmlns="http://www.w3.org/2000/svg" width="1473" height="584">
<path d="M0 0 C76.69678214 -0.12099405 76.69678214 -0.12099405 108.81445312 -0.14648438 C116.16479513 -0.1523572 123.51513693 -0.15841842 130.86547852 -0.16479492 C132.24717679 -0.16598179 132.24717679 -0.16598179 133.65678817 -0.16719264 C148.49043157 -0.18020884 163.32403977 -0.20384264 178.15766235 -0.23145839 C193.40275886 -0.25960158 208.64783705 -0.27619502 223.89295846 -0.28226548 C233.28543084 -0.28636352 242.67780371 -0.29926437 252.07024542 -0.3237494 C258.52781997 -0.33971689 264.98534375 -0.34437571 271.44293656 -0.34050413 C275.15792001 -0.33859954 278.87273071 -0.34133176 282.58768272 -0.35761642 C302.26337778 -0.43957903 321.84035946 -0.07279522 340.8125 5.75 C341.67447998 6.00749023 342.53645996 6.26498047 343.42456055 6.53027344 C363.67720942 12.77569926 385.13919984 23.47076411 398.56640625 40.359375 C400.11394801 42.13040372 401.76929284 43.43293718 403.625 44.875 C425.11535463 63.28356381 437.3365148 97.18038098 439.75 124.6875 C439.86240289 127.12383255 439.94177364 129.56177106 440 132 C440.02578125 132.82064941 440.0515625 133.64129883 440.078125 134.48681641 C441.38902654 180.13076943 426.24813359 218.18600665 395.0625 251.375 C375.12109643 270.2039699 347.7699707 281.48039456 321 286 C320.04618911 286.17299338 319.09237822 286.34598677 318.10966396 286.52422237 C312.51579384 287.3086789 306.87396029 287.13392055 301.23756409 287.12025452 C299.94934767 287.12110894 298.66113126 287.12196337 297.33387798 287.12284368 C293.76958794 287.12507414 290.20532808 287.12108722 286.64104187 287.11606562 C282.79313989 287.11174048 278.94523955 287.11320901 275.09733582 287.1139679 C268.43434306 287.11449182 261.77136011 287.11135873 255.10836983 287.10573006 C245.47484703 287.09759729 235.84132898 287.09499801 226.20780312 287.09374207 C210.57741619 287.09155434 194.94703449 287.08490183 179.31665039 287.07543945 C164.13468451 287.06625811 148.95272005 287.05919227 133.77075195 287.05493164 C132.82513199 287.05466364 131.87951202 287.05439565 130.9052369 287.05411953 C123.50968475 287.05204006 116.11413256 287.05008315 108.71858037 287.04816496 C72.47904878 287.03873412 36.23953028 287.01861513 0 287 C0 192.29 0 97.58 0 0 Z M63 57 C63 113.76 63 170.52 63 229 C98.31 229 133.62 229 170 229 C167.69 225.37 165.38 221.74 163 218 C161.56565931 215.31533773 160.20729303 212.69202142 158.9375 209.9375 C158.60588867 209.21908936 158.27427734 208.50067871 157.93261719 207.76049805 C144.31388016 177.52467356 139.9236247 141.4326882 148 109 C148.24943359 107.92105469 148.24943359 107.92105469 148.50390625 106.8203125 C152.34067278 90.39326766 158.76898071 75.53175229 168.3125 61.625 C170.18025253 59.23971083 170.18025253 59.23971083 170 57 C134.69 57 99.38 57 63 57 Z M240 75 C238.95972656 75.77923828 238.95972656 75.77923828 237.8984375 76.57421875 C221.64728451 89.4262262 212.52913992 111.93389933 210 132 C208.70055184 158.01189465 212.80484294 182.05057217 230.375 202.1875 C231.89881474 203.808634 233.44007085 205.41358648 235 207 C235.68707031 207.69996094 236.37414062 208.39992188 237.08203125 209.12109375 C251.72964269 223.06214137 271.12709032 229.42277976 291.125 229.2109375 C312.47302451 228.04884746 332.46724659 219.06147335 348.546875 205.12109375 C351 203 351 203 353.140625 201.47265625 C365.46369124 192.32738859 371.05203962 173.4576169 373.58325195 159.03759766 C377.00248968 134.11542083 372.13181516 111.20824152 358.5 90.1875 C344.77325633 72.55411973 319.83070687 60.8024014 298 58 C276.6091947 56.63376431 256.75692553 61.25281352 240 75 Z " fill="#BF202F" transform="translate(141,154)"/>
<path d="M0 0 C3.6542376 0.28572228 5.27073415 1.95015327 7.625 4.625 C27.62516897 28.11962229 40.26035486 58.02735971 41 89 C41.02578125 89.82064941 41.0515625 90.64129883 41.078125 91.48681641 C42.22480696 131.41284907 31.36719171 166.00498762 6 197 C3.08165783 195.68516427 1.05079071 194.28366724 -1.171875 191.98828125 C-1.75453125 191.39466797 -2.3371875 190.80105469 -2.9375 190.18945312 C-3.535625 189.57005859 -4.13375 188.95066406 -4.75 188.3125 C-8.32468931 184.63104453 -11.90444984 181.02807158 -15.79296875 177.67578125 C-20.90184452 173.26537009 -25.74088634 168.59550968 -30.5625 163.875 C-31.48869141 162.99457031 -32.41488281 162.11414063 -33.36914062 161.20703125 C-34.67334961 159.92505859 -34.67334961 159.92505859 -36.00390625 158.6171875 C-37.19222046 157.46645752 -37.19222046 157.46645752 -38.40454102 156.29248047 C-40 154 -40 154 -39.85644531 151.42993164 C-38.63463695 147.96338128 -36.91906601 144.79282955 -35.1875 141.5625 C-24.73006082 121.40240229 -22.15133387 95.90024774 -28.58984375 73.98046875 C-31.33612404 65.7745421 -35.02897978 57.49182323 -39.80859375 50.265625 C-41 48 -41 48 -40.77026367 46.08398438 C-39.85460366 43.60662341 -38.70035344 42.28658108 -36.8671875 40.390625 C-36.22523438 39.71773437 -35.58328125 39.04484375 -34.921875 38.3515625 C-34.24640625 37.65804687 -33.5709375 36.96453125 -32.875 36.25 C-31.55854266 34.88150877 -30.24343463 33.51171823 -28.9296875 32.140625 C-28.27645508 31.45935547 -27.62322266 30.77808594 -26.95019531 30.07617188 C-24.4164958 27.37880324 -21.98537501 24.60093374 -19.56298828 21.80371094 C-17.57309365 19.50734394 -15.53937678 17.252446 -13.5 15 C-10.09746797 11.23104144 -6.73591883 7.43056357 -3.41015625 3.59375 C-2.31584855 2.3569701 -1.16771869 1.16771869 0 0 Z " fill="#949598" transform="translate(540,197)"/>
<path d="M0 0 C69.96 0 139.92 0 212 0 C212 0.66 212 1.32 212 2 C211.39752441 2.08975098 210.79504883 2.17950195 210.17431641 2.27197266 C179.74216458 6.90985801 151.55501827 17.34228806 129 39 C127.65026217 40.13030975 126.29625993 41.255552 124.9375 42.375 C122.51502563 44.37138791 121.03402742 45.93700745 119.5300293 48.72125244 C117.49116111 52.2304723 115.53162413 54.97374266 112 57 C103.91678477 59.10716028 95.14614877 58.30036931 86.875 58.109375 C84.40164088 58.09138192 81.92824315 58.0781255 79.45483398 58.06939697 C72.96362545 58.03317485 66.47512118 57.9300389 59.98492432 57.81359863 C53.35874792 57.70784612 46.73230807 57.67065933 40.10546875 57.625 C30.45653817 57.54571081 20.80810235 57.4489722 11.16015625 57.28808594 C10.13995895 57.27439972 9.11976166 57.2607135 8.06864929 57.24661255 C7.14630997 57.22934113 6.22397064 57.2120697 5.27368164 57.1942749 C4.46774063 57.18090969 3.66179962 57.16754448 2.83143616 57.15377426 C1 57 1 57 0 56 C0 37.52 0 19.04 0 0 Z " fill="#949598" transform="translate(202,154)"/>
<path d="M0 0 C5.94 0 11.88 0 18 0 C22.12404821 4.26994615 24.00062027 6.72385565 26.5 11.8125 C27.11746094 12.93205078 27.73492188 14.05160156 28.37109375 15.20507812 C29.50574451 17.27202945 30.6127387 19.35459267 31.68164062 21.45629883 C33.01164396 24.13621486 33.01164396 24.13621486 35 27 C39.88128567 20.27610981 44.35213332 13.34040186 48.71044922 6.27148438 C51.90876802 1.09123198 51.90876802 1.09123198 53 0 C58.94 0 64.88 0 71 0 C71 23.43 71 46.86 71 71 C65.39 71 59.78 71 54 71 C53.67 57.47 53.34 43.94 53 30 C47.39 38.25 41.78 46.5 36 55 C32.02859814 53.67619938 31.4162748 51.95070948 29.20703125 48.43359375 C28.56483643 47.42095459 27.9226416 46.40831543 27.26098633 45.36499023 C26.45298584 44.06891846 25.64498535 42.77284668 24.8125 41.4375 C22.234375 37.333125 19.65625 33.22875 17 29 C16.67 42.86 16.34 56.72 16 71 C10.72 71 5.44 71 0 71 C0 47.57 0 24.14 0 0 Z " fill="#000000" transform="translate(944,274)"/>
<path d="M0 0 C18 0 18 0 22.4609375 4.3828125 C24.0078125 7.171875 24.0078125 7.171875 25.375 10.125 C25.8803125 11.07632812 26.385625 12.02765625 26.90625 13.0078125 C27.87685386 14.83722292 28.8233428 16.67970279 29.74121094 18.53613281 C31.279462 21.54699971 33.04414135 24.24696673 35 27 C39.88128567 20.27610981 44.35213332 13.34040186 48.71044922 6.27148438 C51.90876802 1.09123198 51.90876802 1.09123198 53 0 C58.94 0 64.88 0 71 0 C71 23.43 71 46.86 71 71 C65.39 71 59.78 71 54 71 C53.505 50.21 53.505 50.21 53 29 C49.7 34.28 46.4 39.56 43 45 C38.359375 51.75 38.359375 51.75 36 55 C32.38701853 53.79567284 31.97022251 52.84703094 29.96875 49.703125 C29.40542969 48.8265625 28.84210937 47.95 28.26171875 47.046875 C27.68035156 46.12390625 27.09898437 45.2009375 26.5 44.25 C25.91863281 43.3425 25.33726562 42.435 24.73828125 41.5 C22.0970728 37.3659346 19.5244934 33.20748901 17 29 C16.67 42.86 16.34 56.72 16 71 C10.72 71 5.44 71 0 71 C0 47.57 0 24.14 0 0 Z " fill="#000000" transform="translate(857,274)"/>
<path d="M0 0 C16 0 16 0 21.125 4.8125 C22.43920898 6.51416016 22.43920898 6.51416016 23.43359375 8.1015625 C25.91752089 11.91913508 28.60682423 15.55282186 31.33349609 19.19995117 C33.6101427 22.25456696 35.84673397 25.33731374 38.07885742 28.42456055 C40.99157897 32.32928791 44.0092305 36.15472493 47 40 C47.33 26.8 47.66 13.6 48 0 C53.28 0 58.56 0 64 0 C64 23.43 64 46.86 64 71 C50 71 50 71 46.375 68 C45.21857341 66.35498318 44.09895263 64.68395543 43 63 C41.65270964 61.17722665 40.27805172 59.37674409 38.90380859 57.57421875 C37.35055629 55.53033517 35.81797378 53.47229746 34.2890625 51.41015625 C28.93882832 44.21316547 23.45617833 37.11675434 18 30 C17.67 43.53 17.34 57.06 17 71 C11.39 71 5.78 71 0 71 C0 47.57 0 24.14 0 0 Z " fill="#000000" transform="translate(1106,274)"/>
<path d="M0 0 C15 0 15 0 19.6875 4.5 C20.75477381 6.06078763 21.81963928 7.62403378 22.83398438 9.21972656 C24.56528289 11.86307429 26.48847201 14.34945351 28.40356445 16.86132812 C29.85653033 18.76870717 31.28785076 20.69033684 32.71484375 22.6171875 C37.08882801 28.4526338 41.55353313 34.21959307 46 40 C46.33 26.8 46.66 13.6 47 0 C52.28 0 57.56 0 63 0 C63 23.43 63 46.86 63 71 C58.05 71 53.1 71 48 71 C44.78630801 67.60525494 42.7081855 65.01613174 40.37304688 61.13720703 C37.48033825 56.63458056 34.08736397 52.47779418 30.8125 48.25 C29.46315306 46.48566674 28.11544392 44.72007947 26.76953125 42.953125 C26.18792236 42.19161133 25.60631348 41.43009766 25.00708008 40.64550781 C22.32334827 37.1081136 19.66413339 33.55217785 17 30 C16.67 43.53 16.34 57.06 16 71 C10.72 71 5.44 71 0 71 C0 47.57 0 24.14 0 0 Z " fill="#000000" transform="translate(1103,153)"/>
<path d="M0 0 C15 0 15 0 20.0625 4.8125 C21.38427734 6.51416016 21.38427734 6.51416016 22.3984375 8.1015625 C24.91211761 11.90502605 27.60780515 15.54784083 30.33569336 19.19995117 C32.61032056 22.25547873 34.84700922 25.33769444 37.07885742 28.42456055 C39.99157897 32.32928791 43.0092305 36.15472493 46 40 C46.33 26.8 46.66 13.6 47 0 C52.28 0 57.56 0 63 0 C63 23.43 63 46.86 63 71 C48 71 48 71 43.96484375 67.4765625 C42.90520373 65.89202134 41.89755552 64.27178506 40.9375 62.625 C39.79761122 60.88452644 38.65428167 59.14630229 37.5078125 57.41015625 C36.93836914 56.51570801 36.36892578 55.62125977 35.78222656 54.69970703 C32.87358285 50.29370947 29.59576263 46.19254603 26.3125 42.0625 C25.16172092 40.59586712 24.01190935 39.12847433 22.86328125 37.66015625 C22.38157471 37.04793213 21.89986816 36.43570801 21.40356445 35.80493164 C19.91264736 33.88766776 18.45723864 31.94298485 17 30 C16.67 43.53 16.34 57.06 16 71 C10.72 71 5.44 71 0 71 C0 47.57 0 24.14 0 0 Z " fill="#000000" transform="translate(990,153)"/>
<path d="M0 0 C7.09853912 6.64056886 11.30364345 14.72761685 12.01953125 24.4609375 C12.21313946 36.54531653 9.24911628 45.69932354 1 54.67578125 C-7.71135554 62.94716934 -17.92859546 65.03087676 -29.578125 64.91015625 C-40.24050623 64.28635496 -48.69097802 59.64290447 -55.99609375 51.94921875 C-62.67808418 43.87191709 -64.82085172 33.96242601 -64.18359375 23.69921875 C-63.14224764 15.07092238 -59.2616469 6.94610671 -53.18359375 0.69921875 C-37.21122376 -11.69204448 -16.20948531 -13.00033468 0 0 Z M-42.49609375 13.94921875 C-46.11273276 19.84300084 -47.94311187 25.58210714 -46.8203125 32.5 C-44.90555407 39.11355212 -40.74425148 43.84080318 -35.18359375 47.69921875 C-29.91509843 50.33346641 -24.79150522 50.12438723 -19.18359375 48.69921875 C-13.4620603 46.11961943 -9.25275294 42.77041197 -6.83984375 36.89453125 C-4.67413532 29.64972089 -4.65672494 23.92522071 -7.80859375 16.96484375 C-10.70165577 12.19786656 -15.03447214 8.79457298 -20.18359375 6.69921875 C-29.77102772 5.398067 -35.67596617 7.31341894 -42.49609375 13.94921875 Z " fill="#000000" transform="translate(832.18359375,281.30078125)"/>
<path d="M0 0 C0.886875 0.7425 1.77375 1.485 2.6875 2.25 C2.1227699 6.15829085 0.26618029 8.14920223 -2.375 11 C-3.47521484 12.19882813 -3.47521484 12.19882813 -4.59765625 13.421875 C-5.16355469 14.02515625 -5.72945312 14.6284375 -6.3125 15.25 C-9.28660252 14.63200467 -10.77334823 13.95505714 -13.4375 12.25 C-18.43589144 9.32802813 -23.8737834 8.57304011 -29.5546875 9.69140625 C-36.10694384 11.85488712 -40.18224409 16.14600098 -43.3125 22.25 C-45.58176844 28.2326168 -44.6967446 34.67416787 -42.29296875 40.4296875 C-39.8645951 44.93814217 -35.91537667 48.15778333 -31.3125 50.25 C-25.12873016 51.68615384 -20.327263 51.08501244 -14.3125 49.25 C-12.3325 48.755 -12.3325 48.755 -10.3125 48.25 C-10.3125 44.95 -10.3125 41.65 -10.3125 38.25 C-15.5925 38.25 -20.8725 38.25 -26.3125 38.25 C-26.3125 33.63 -26.3125 29.01 -26.3125 24.25 C-15.7525 24.25 -5.1925 24.25 5.6875 24.25 C5.914375 29.385625 6.14125 34.52125 6.375 39.8125 C6.47514404 41.41939697 6.57528809 43.02629395 6.6784668 44.68188477 C6.89826852 54.93779454 6.89826852 54.93779454 3.35913086 58.7734375 C0.52036465 60.61155943 -2.17420883 61.99946538 -5.3125 63.25 C-6.61344604 63.7744873 -6.61344604 63.7744873 -7.94067383 64.30957031 C-19.97714225 68.80289819 -32.322236 68.24567289 -44.0546875 63.03125 C-52.59196807 58.36039741 -58.14445004 51.40214432 -61.3125 42.25 C-64.17876813 30.33770836 -62.39522102 19.57074115 -56.5 9 C-42.99978514 -7.97169868 -18.57927327 -13.09502996 0 0 Z " fill="#000000" transform="translate(1241.3125,158.75)"/>
<path d="M0 0 C17.82 0 35.64 0 54 0 C54 4.95 54 9.9 54 15 C41.46 15 28.92 15 16 15 C16 19.29 16 23.58 16 28 C26.89 28 37.78 28 49 28 C49 32.95 49 37.9 49 43 C38.11 43 27.22 43 16 43 C16 47.62 16 52.24 16 57 C28.54 57 41.08 57 54 57 C54 61.62 54 66.24 54 71 C36.18 71 18.36 71 0 71 C0 47.57 0 24.14 0 0 Z " fill="#000000" transform="translate(923,153)"/>
<path d="M0 0 C5.28 0 10.56 0 16 0 C16.01401855 1.98193359 16.01401855 1.98193359 16.02832031 4.00390625 C16.06835786 8.93181388 16.13415515 13.85910625 16.20751953 18.78662109 C16.23564943 20.91447005 16.25690346 23.04242194 16.27099609 25.17041016 C16.29253608 28.2391398 16.33924371 31.30664211 16.390625 34.375 C16.39185364 35.31802979 16.39308228 36.26105957 16.39434814 37.23266602 C16.52330705 43.1207796 17.30857927 48.22488823 21 53 C24.88404461 55.4987131 28.59761864 56.26720792 33.1875 55.9375 C37.24976516 54.93858234 39.14607448 54.02180349 42 51 C44.72270807 46.12686899 44.35009504 40.87833874 44.4140625 35.44921875 C44.43342865 34.43527542 44.4527948 33.42133209 44.4727478 32.37666321 C44.53239426 29.14702697 44.57886951 25.9173548 44.625 22.6875 C44.66319349 20.49412532 44.70224602 18.30076542 44.7421875 16.10742188 C44.83808368 10.73840167 44.92217014 5.36931126 45 0 C50.61 0 56.22 0 62 0 C62.07477342 6.18893871 62.12889419 12.37760802 62.16479492 18.56689453 C62.17977873 20.66752714 62.20017281 22.76812901 62.22631836 24.86865234 C62.5794847 53.99448854 62.5794847 53.99448854 54.73046875 63.31640625 C47.80191411 70.05727996 40.07512533 72.04661136 30.625 72.3125 C21.11222174 72.12554366 12.78930781 70.00053072 6 63 C1.95599973 57.20561155 -0.13138811 52.02969239 -0.11352539 44.95605469 C-0.11344986 43.95531921 -0.11337433 42.95458374 -0.11329651 41.92352295 C-0.10813522 40.85047913 -0.10297394 39.7774353 -0.09765625 38.671875 C-0.0962413 37.56773254 -0.09482635 36.46359009 -0.09336853 35.32598877 C-0.08777258 31.80063158 -0.07522079 28.27533798 -0.0625 24.75 C-0.05748448 22.35937592 -0.05292166 19.96875084 -0.04882812 17.578125 C-0.03780447 11.71872551 -0.02054257 5.85937354 0 0 Z " fill="#000000" transform="translate(1030,274)"/>
<path d="M0 0 C0 4.60496974 -0.84082208 5.64111568 -3.5 9.25 C-4.47453125 10.58804688 -4.47453125 10.58804688 -5.46875 11.953125 C-5.9740625 12.62859375 -6.479375 13.3040625 -7 14 C-10.17556684 12.76752476 -13.20559165 11.39720418 -16.25 9.875 C-20.85010248 7.83221659 -25.0118452 7.00436032 -30 8 C-32.71648577 9.5451157 -32.71648577 9.5451157 -34 12 C-33.94839295 14.06666487 -33.94839295 14.06666487 -33 16 C-31.21055417 17.19445529 -31.21055417 17.19445529 -28.875 17.9375 C-27.9778125 18.26878906 -27.080625 18.60007813 -26.15625 18.94140625 C-23.87394408 19.70688262 -21.58063876 20.43982307 -19.28125 21.15234375 C-2.93898305 26.22415255 -2.93898305 26.22415255 2 34.25 C3.804874 41.01827749 3.90990669 47.66623798 1.10546875 54.18359375 C-2.27018147 59.73015683 -7.8727617 63.14745727 -14 65 C-17.07442253 65.43097751 -20.0863568 65.47683797 -23.1875 65.4375 C-24.441073 65.42614014 -24.441073 65.42614014 -25.7199707 65.41455078 C-35.70389526 65.15057362 -43.71151697 62.56454899 -51.671875 56.46484375 C-53 55 -53 55 -53 52 C-51.25 49.51953125 -51.25 49.51953125 -49 46.8125 C-48.2575 45.91144531 -47.515 45.01039063 -46.75 44.08203125 C-46.1725 43.39496094 -45.595 42.70789063 -45 42 C-42.84707106 43.07148084 -40.70099355 44.15381582 -38.5625 45.25390625 C-37.716875 45.68574219 -36.87125 46.11757812 -36 46.5625 C-35.154375 46.99691406 -34.30875 47.43132812 -33.4375 47.87890625 C-27.41384222 50.6494027 -21.40988369 50.5539112 -15 49 C-14.22197813 46.6984589 -14.22197813 46.6984589 -14 44 C-16.10844078 40.24038682 -18.19791682 39.27268278 -22.26171875 38.10546875 C-23.29876953 37.78900391 -24.33582031 37.47253906 -25.40429688 37.14648438 C-27.57195628 36.51333698 -29.74120998 35.88561943 -31.91210938 35.26367188 C-39.77853877 32.84883839 -46.48340846 29.71860913 -50.5 22.1875 C-51.74034505 14.28030032 -51.84654503 7.68736926 -47 1 C-34.81098023 -13.25824329 -14.00195983 -8.94569656 0 0 Z " fill="#000000" transform="translate(844,160)"/>
<path d="M0 0 C-2.97519337 4.69165109 -6.31393365 8.84703191 -10 13 C-10.68707031 12.57847656 -11.37414062 12.15695312 -12.08203125 11.72265625 C-12.98308594 11.17480469 -13.88414062 10.62695312 -14.8125 10.0625 C-15.70582031 9.51722656 -16.59914063 8.97195313 -17.51953125 8.41015625 C-22.84763535 5.38110809 -28.018996 5.53662236 -34 6 C-38.99975718 7.66658573 -42.24946476 10.53888454 -45 15 C-48.3736494 21.91663256 -48.6227313 27.88286437 -46.3125 35.16796875 C-43.98024582 40.71748427 -40.53589784 43.71300674 -35 46 C-28.55557339 47.83963242 -22.98282427 46.90394394 -17 44 C-15.6078125 42.88625 -15.6078125 42.88625 -14.1875 41.75 C-12 40 -12 40 -10.12890625 40.13671875 C-7.34064555 41.26737125 -5.81829245 42.89079293 -3.75 45.0625 C-2.69039062 46.16271484 -2.69039062 46.16271484 -1.609375 47.28515625 C-1.07828125 47.85105469 -0.5471875 48.41695313 0 49 C-2.5004685 54.87673562 -7.99045467 58.26382183 -13.6875 60.8125 C-23.81971848 64.44480474 -35.11929707 64.25674423 -45.17578125 60.45703125 C-54.18630884 55.80844648 -59.98055612 48.34083215 -64.25 39.375 C-67.64882879 28.61204217 -66.35107972 18.29023899 -62 8 C-57.41218911 -0.04388063 -50.26811375 -5.72748034 -41.8125 -9.375 C-40.4203125 -9.684375 -40.4203125 -9.684375 -39 -10 C-37.515 -10.3403125 -37.515 -10.3403125 -36 -10.6875 C-22.10151488 -12.35162017 -10.58338647 -8.86875962 0 0 Z " fill="#000000" transform="translate(762,283)"/>
<path d="M0 0 C6.70187033 -1.53088409 13.51102473 -2.87411233 20 0 C26.77058329 6.8662323 30.99624931 16.32828191 35 25 C37.73533111 22.6035507 38.96821942 20.20007475 40.43359375 16.89453125 C47.99929861 1.20336464 47.99929861 1.20336464 53.56542969 -1.02880859 C59.4993035 -1.93951543 65.15107011 -1.15462425 71 0 C65.79165293 9.31820639 60.02686604 18.23983795 54.18359375 27.16796875 C53.66023438 27.98257568 53.136875 28.79718262 52.59765625 29.63647461 C51 32 51 32 49.29296875 34.06860352 C43.85011413 40.94263732 44.10517692 48.1743648 44.125 56.5625 C44.10683981 57.96683399 44.08602677 59.37113629 44.0625 60.77539062 C44.0156554 64.18333548 44.00426299 67.59173587 44 71 C38.39 71 32.78 71 27 71 C27.09023437 69.16179687 27.18046875 67.32359375 27.2734375 65.4296875 C27.68918158 47.64734294 24.8884263 36.89933545 13.92626953 22.58740234 C10.72673813 18.28973012 7.94605467 13.73853192 5.125 9.1875 C4.60768311 8.37394043 4.09036621 7.56038086 3.55737305 6.72216797 C2.85221558 5.61252686 2.85221558 5.61252686 2.1328125 4.48046875 C1.71918457 3.82973389 1.30555664 3.17899902 0.87939453 2.50854492 C0 1 0 1 0 0 Z " fill="#000000" transform="translate(1277,274)"/>
<path d="M0 0 C19.47 0 38.94 0 59 0 C59 5.28 59 10.56 59 16 C52.07 16 45.14 16 38 16 C38 34.15 38 52.3 38 71 C32.39 71 26.78 71 21 71 C21 52.85 21 34.7 21 16 C14.07 16 7.14 16 0 16 C0 10.72 0 5.44 0 0 Z " fill="#000000" transform="translate(853,153)"/>
<path d="M0 0 C19.8 0 39.6 0 60 0 C60 4.95 60 9.9 60 15 C52.74 15 45.48 15 38 15 C38 33.48 38 51.96 38 71 C32.72 71 27.44 71 22 71 C22 52.52 22 34.04 22 15 C14.74 15 7.48 15 0 15 C0 10.05 0 5.1 0 0 Z " fill="#000000" transform="translate(1214,274)"/>
<path d="M0 0 C5.61 0 11.22 0 17 0 C17 18.48 17 36.96 17 56 C28.55 56 40.1 56 52 56 C52 60.95 52 65.9 52 71 C34.84 71 17.68 71 0 71 C0 47.57 0 24.14 0 0 Z " fill="#000000" transform="translate(699,153)"/>
<path d="M0 0 C5.61 0 11.22 0 17 0 C17 23.43 17 46.86 17 71 C11.39 71 5.78 71 0 71 C0 47.57 0 24.14 0 0 Z " fill="#000000" transform="translate(1186,274)"/>
<path d="M0 0 C5.61 0 11.22 0 17 0 C17 23.43 17 46.86 17 71 C11.39 71 5.78 71 0 71 C0 47.57 0 24.14 0 0 Z " fill="#000000" transform="translate(762,153)"/>
<path d="M0 0 C5.28 0 10.56 0 16 0 C16 23.43 16 46.86 16 71 C10.72 71 5.44 71 0 71 C0 47.57 0 24.14 0 0 Z " fill="#000000" transform="translate(1070,153)"/>
<path d="M0 0 C2.64 0 5.28 0 8 0 C16 18.85106383 16 18.85106383 16 26 C16.66 26 17.32 26 18 26 C18.309375 24.2984375 18.309375 24.2984375 18.625 22.5625 C20.31648767 14.82643138 23.28945991 7.42415226 26 0 C28.31 0 30.62 0 33 0 C36.45350264 8.19965711 39.23414919 16.54878919 42 25 C44.97 16.75 47.94 8.5 51 0 C53.64 0 56.28 0 59 0 C57.39126305 8.67361188 54.36818085 16.79539489 51.375 25.0625 C50.85367121 26.5147962 50.3328338 27.96726889 49.8125 29.41992188 C48.54732615 32.94866761 47.27551624 36.47497747 46 40 C43.36 40 40.72 40 38 40 C35.36 32.08 32.72 24.16 30 16 C28.17130348 18.74304477 27.28510799 20.79550338 26.2734375 23.88671875 C25.9640625 24.82451172 25.6546875 25.76230469 25.3359375 26.72851562 C25.01882813 27.70498047 24.70171875 28.68144531 24.375 29.6875 C23.88773438 31.16959961 23.88773438 31.16959961 23.390625 32.68164062 C22.58968568 35.11979416 21.79298249 37.55924933 21 40 C18.36 40 15.72 40 13 40 C11.14260715 34.78767232 9.29135994 29.57321893 7.44580078 24.35668945 C6.81695753 22.58200096 6.18643221 20.80790756 5.55419922 19.03442383 C4.64629451 16.48673206 3.74443926 13.93696891 2.84375 11.38671875 C2.55939087 10.59287277 2.27503174 9.79902679 1.98205566 8.98112488 C0.88922583 5.87171447 0 3.32146321 0 0 Z " fill="#949699" transform="translate(700,400)"/>
<path d="M0 0 C5.754375 -0.12375 5.754375 -0.12375 11.625 -0.25 C12.82334473 -0.28641602 14.02168945 -0.32283203 15.25634766 -0.36035156 C21.46497112 -0.42499214 25.34472448 -0.28984434 30 4 C31.59220976 7.18441952 31.3976617 10.5337155 31 14 C29.5 17 29.5 17 28 19 C28.825 19.639375 29.65 20.27875 30.5 20.9375 C33.45725494 24.5601373 33.69329561 26.31643991 33.421875 30.84765625 C32.77825878 34.13129088 31.47292751 35.79441601 29 38 C25.29596933 39.80948801 22.36331355 40.23917982 18.26171875 40.1953125 C16.81865356 40.18781982 16.81865356 40.18781982 15.34643555 40.18017578 C14.13898682 40.16196777 12.93153809 40.14375977 11.6875 40.125 C7.830625 40.08375 3.97375 40.0425 0 40 C0 26.8 0 13.6 0 0 Z M7 7 C7 9.97 7 12.94 7 16 C9.10388569 16.05402274 11.20816714 16.09280256 13.3125 16.125 C14.48425781 16.14820313 15.65601563 16.17140625 16.86328125 16.1953125 C20.16393661 16.25320618 20.16393661 16.25320618 23 14 C23.5 11.5 23.5 11.5 23 9 C19.36804504 6.57869669 17.61650652 6.78977215 13.3125 6.875 C12.13300781 6.89304687 10.95351562 6.91109375 9.73828125 6.9296875 C8.38283203 6.96449219 8.38283203 6.96449219 7 7 Z M7 23 C7 26.3 7 29.6 7 33 C9.24973447 33.054138 11.49984383 33.09285491 13.75 33.125 C15.62945313 33.15980469 15.62945313 33.15980469 17.546875 33.1953125 C20.72820492 33.01537302 22.36521896 32.68998582 25 31 C25.33425735 28.62625139 25.33425735 28.62625139 25 26 C22.54484418 23.39753483 21.14921951 23.01266003 17.546875 22.70703125 C16.29390625 22.74183594 15.0409375 22.77664063 13.75 22.8125 C12.48671875 22.83957031 11.2234375 22.86664063 9.921875 22.89453125 C8.47554687 22.94673828 8.47554687 22.94673828 7 23 Z " fill="#949699" transform="translate(1098,400)"/>
<path d="M0 0 C8 0 8 0 9.9609375 1.29296875 C10.42757813 1.91816406 10.89421875 2.54335938 11.375 3.1875 C11.93316406 3.90679687 12.49132813 4.62609375 13.06640625 5.3671875 C14.02353516 6.67042969 14.02353516 6.67042969 15 8 C15.86009139 9.10925154 16.72359198 10.2158651 17.58984375 11.3203125 C24.10932736 19.66399104 24.10932736 19.66399104 27 24 C27.33 16.08 27.66 8.16 28 0 C30.64 0 33.28 0 36 0 C36 13.2 36 26.4 36 40 C29 40 29 40 27.13671875 38.70703125 C26.65847656 38.08183594 26.18023438 37.45664062 25.6875 36.8125 C25.11902344 36.09191406 24.55054688 35.37132812 23.96484375 34.62890625 C22.99224609 33.32759766 22.99224609 33.32759766 22 32 C21.14916235 30.90337228 20.29616486 29.80841807 19.44140625 28.71484375 C15.91080667 24.18061547 12.44804967 19.59739956 9 15 C8.67 23.25 8.34 31.5 8 40 C5.36 40 2.72 40 0 40 C0 26.8 0 13.6 0 0 Z " fill="#949699" transform="translate(1260,400)"/>
<path d="M0 0 C8 0 8 0 10.65234375 2.203125 C11.40644531 3.20859375 12.16054688 4.2140625 12.9375 5.25 C13.34790527 5.78270508 13.75831055 6.31541016 14.18115234 6.86425781 C15.47844869 8.55923283 16.73885131 10.2780192 18 12 C18.87659696 13.15800174 19.75548247 14.31427485 20.63671875 15.46875 C22.78981229 18.2908839 24.89095416 21.14258306 27 24 C27.33 16.08 27.66 8.16 28 0 C30.64 0 33.28 0 36 0 C36 13.2 36 26.4 36 40 C28 40 28 40 25.99365234 38.56640625 C25.52910645 37.90511719 25.06456055 37.24382812 24.5859375 36.5625 C24.05226563 35.83160156 23.51859375 35.10070312 22.96875 34.34765625 C22.4428125 33.57292969 21.916875 32.79820312 21.375 32 C20.84132813 31.25621094 20.30765625 30.51242187 19.7578125 29.74609375 C18.74234187 28.3288714 17.73739401 26.9039941 16.74755859 25.46875 C14.23932002 21.92539873 11.60476019 18.47301358 9 15 C8.67 23.25 8.34 31.5 8 40 C5.36 40 2.72 40 0 40 C0 26.8 0 13.6 0 0 Z " fill="#949699" transform="translate(992,400)"/>
<path d="M0 0 C4.35160346 3.17498965 7.11897025 6.71198852 9.2578125 11.640625 C10.45923179 19.51659592 9.51795932 25.85299019 4.8203125 32.328125 C-0.18824226 37.33667976 -4.63297528 39.00569662 -11.6171875 39.640625 C-18.82901752 39.00800833 -24.0816818 36.4261307 -29.1796875 31.328125 C-32.90986364 25.53992064 -33.72822174 19.52261284 -32.6796875 12.828125 C-31.14059733 6.89749756 -27.49625994 2.37437466 -22.29296875 -0.8359375 C-15.01905558 -3.99337648 -6.90463172 -3.96946439 0 0 Z M-20.1796875 7.328125 C-23.35094269 10.65794295 -24.43711805 13.32542964 -24.6796875 17.828125 C-24.42501506 23.23081882 -22.0341911 26.26756545 -18.4921875 30.203125 C-14.73945867 32.02877686 -11.24958643 32.19682612 -7.1796875 31.328125 C-3.8050506 29.28080354 -0.95873448 26.88621895 0.8203125 23.328125 C1.35417253 18.4621221 1.28315908 14.43493203 -0.6171875 9.890625 C-6.35067184 4.15714066 -13.25757278 2.78109253 -20.1796875 7.328125 Z " fill="#949699" transform="translate(794.1796875,401.671875)"/>
<path d="M0 0 C4.78896202 3.00702266 7.3329481 6.66008509 9 12 C10.01923626 19.07288194 9.33137495 25.19519545 5 31 C0.06576195 36.36434112 -4.54515373 38.72138336 -11.875 39.3125 C-17.74497901 39.13292129 -22.33426165 37.40662349 -26.8125 33.625 C-32.32324024 27.01211171 -33.7214036 21.46361008 -33 13 C-31.60661959 7.66212356 -28.82605509 2.77207553 -24.09375 -0.1953125 C-15.90064739 -4.32071276 -8.03097154 -4.40916085 0 0 Z M-22.375 9.1875 C-24.43171643 12.74720151 -25.18553801 15.93362519 -25 20 C-23.78437047 24.29045718 -22.61611229 26.44120048 -19.3125 29.4375 C-15.29198151 31.33397099 -12.36200184 31.85324587 -8 31 C-4.34195976 29.20548969 -2.43888108 27.60877052 -0.0625 24.3125 C1.52823092 19.35316243 1.42948741 14.88965052 -0.91015625 10.16015625 C-3.58839257 6.44694047 -6.58454904 4.86101735 -10.9453125 4.0546875 C-15.71775842 3.92766422 -18.98127174 6.06169766 -22.375 9.1875 Z " fill="#949699" transform="translate(1244,402)"/>
<path d="M0 0 C5.754375 -0.0928125 5.754375 -0.0928125 11.625 -0.1875 C13.42251709 -0.22846802 13.42251709 -0.22846802 15.25634766 -0.27026367 C20.89295849 -0.31427751 25.19078422 -0.31835889 30 3 C33.4075845 6.74834295 33.56061472 10.68128543 33.4296875 15.5546875 C32.72732772 19.55175316 30.94179178 21.26833621 28 24 C27.34 24.33 26.68 24.66 26 25 C27.85816881 28.95086377 30.27357401 32.39878363 32.7578125 35.9765625 C34 38 34 38 34 40 C30.74108673 40.83206296 28.23896087 40.98238753 25 40 C21.3762284 36.3762284 18.58689881 32.41546321 16 28 C16 27.34 16 26.68 16 26 C13.36 26 10.72 26 8 26 C8 30.62 8 35.24 8 40 C5.36 40 2.72 40 0 40 C0 26.8 0 13.6 0 0 Z M8 7 C8 10.96 8 14.92 8 19 C10.08268593 19.08126087 12.16628658 19.13930839 14.25 19.1875 C15.41015625 19.22230469 16.5703125 19.25710938 17.765625 19.29296875 C21.22268407 18.97982934 22.51565563 18.34290892 25 16 C24.73606499 12.56769552 24.73606499 12.56769552 24 9 C20.36804504 6.57869669 18.61650652 6.78977215 14.3125 6.875 C13.13300781 6.89304687 11.95351563 6.91109375 10.73828125 6.9296875 C9.38283203 6.96449219 9.38283203 6.96449219 8 7 Z " fill="#949699" transform="translate(811,400)"/>
<path d="M0 0 C3.465 -0.0825 6.93 -0.165 10.5 -0.25 C12.11358398 -0.30462402 12.11358398 -0.30462402 13.75976562 -0.36035156 C20.04361778 -0.43223327 24.79103336 0.33389349 30 4 C35.83467491 10.14176306 36.52750363 15.18823684 36.36328125 23.51171875 C35.73221049 29.57135516 33.6846448 32.65525658 29.1796875 36.58984375 C20.66516133 42.09834544 9.62702563 40.30465271 0 40 C0 26.8 0 13.6 0 0 Z M8 7 C8 15.58 8 24.16 8 33 C17.04303577 33.50184638 17.04303577 33.50184638 24 30 C26.86985359 26.7525341 28.25126393 24.22902681 28.4375 19.9375 C27.83500655 14.51505899 26.4538884 12.34484677 22.5 8.6875 C17.99618579 6.20378483 17.99618579 6.20378483 8 7 Z " fill="#949699" transform="translate(1305,400)"/>
<path d="M0 0 C3.50625 -0.061875 7.0125 -0.12375 10.625 -0.1875 C11.71893066 -0.21481201 12.81286133 -0.24212402 13.93994141 -0.27026367 C20.95738736 -0.33012631 25.24592884 0.63021784 30.6875 5.3125 C35.66666962 11.09910254 36.50883187 15.66384757 36.27734375 23.1640625 C35.65433358 29.53456089 32.57657699 32.74318119 27.9140625 36.703125 C24.04577357 39.32408811 20.55999341 40.25226986 15.91796875 40.1953125 C14.65762817 40.18781982 14.65762817 40.18781982 13.37182617 40.18017578 C12.32099854 40.16196777 11.2701709 40.14375977 10.1875 40.125 C6.825625 40.08375 3.46375 40.0425 0 40 C0 26.8 0 13.6 0 0 Z M8 7 C8 15.58 8 24.16 8 33 C17.88266246 33.16069984 17.88266246 33.16069984 25.875 28.375 C28.208565 23.448585 28.61956541 18.76087012 26.8125 13.625 C24.27813694 9.95454316 22.21079349 8.40359783 18 7 C14.7 7 11.4 7 8 7 Z " fill="#949699" transform="translate(852,400)"/>
<path d="M0 0 C3.465 -0.0825 6.93 -0.165 10.5 -0.25 C12.11358398 -0.30462402 12.11358398 -0.30462402 13.75976562 -0.36035156 C20.06834331 -0.4325161 24.78037091 0.31220087 30 4 C31.83984375 5.81640625 31.83984375 5.81640625 32.9375 7.5625 C33.31777344 8.14128906 33.69804688 8.72007812 34.08984375 9.31640625 C36.9010195 14.51647813 36.40378978 20.26313762 36 26 C34.29059854 31.42986347 30.6375326 34.85783506 26 38 C22.49106104 39.62924327 19.77745521 40.24266816 15.91796875 40.1953125 C14.65762817 40.18781982 14.65762817 40.18781982 13.37182617 40.18017578 C12.32099854 40.16196777 11.2701709 40.14375977 10.1875 40.125 C6.825625 40.08375 3.46375 40.0425 0 40 C0 26.8 0 13.6 0 0 Z M8 7 C8 15.58 8 24.16 8 33 C16.74587116 33.22849463 16.74587116 33.22849463 24 30 C26.89225225 26.81110649 28.24777252 24.2553217 28.5 20 C28.25687833 15.76157884 26.83203009 13.20466563 24 10 C18.39483015 5.99630725 15.69124138 7 8 7 Z " fill="#949699" transform="translate(1037,400)"/>
<path d="M0 0 C9.9 0 19.8 0 30 0 C30 2.31 30 4.62 30 7 C22.74 7 15.48 7 8 7 C8 9.97 8 12.94 8 16 C14.6 16 21.2 16 28 16 C28 18.31 28 20.62 28 23 C21.4 23 14.8 23 8 23 C8 26.3 8 29.6 8 33 C15.59 33 23.18 33 31 33 C31 35.31 31 37.62 31 40 C20.77 40 10.54 40 0 40 C0 26.8 0 13.6 0 0 Z " fill="#949699" transform="translate(1138,400)"/>
<path d="M0 0 C1.134375 0.020625 2.26875 0.04125 3.4375 0.0625 C7.63507204 8.19494273 11.44388959 16.45287211 15.01708984 24.87573242 C15.82869611 26.78816376 16.6463804 28.69791635 17.46484375 30.60742188 C21.4375 39.92175752 21.4375 39.92175752 21.4375 41.0625 C18.4675 41.0625 15.4975 41.0625 12.4375 41.0625 C9.4375 35.4375 9.4375 35.4375 9.4375 32.0625 C3.1675 32.0625 -3.1025 32.0625 -9.5625 32.0625 C-10.5525 35.0325 -11.5425 38.0025 -12.5625 41.0625 C-15.2025 41.0625 -17.8425 41.0625 -20.5625 41.0625 C-19.87358629 36.34413464 -18.10216845 32.29134536 -16.21875 27.953125 C-15.88959595 27.18570984 -15.56044189 26.41829468 -15.22131348 25.62762451 C-14.52759842 24.01297127 -13.83154638 22.39932031 -13.13330078 20.78662109 C-12.06113136 18.30933772 -10.99679995 15.8287978 -9.93359375 13.34765625 C-9.25826921 11.7784492 -8.58250342 10.20943197 -7.90625 8.640625 C-7.58644165 7.89588928 -7.2666333 7.15115356 -6.93713379 6.3838501 C-4.19916343 0.07366953 -4.19916343 0.07366953 0 0 Z M-0.5625 11.0625 C-1.40040789 12.85203185 -2.23269396 14.64419695 -3.0625 16.4375 C-3.5265625 17.43523437 -3.990625 18.43296875 -4.46875 19.4609375 C-5.6916873 21.89942626 -5.6916873 21.89942626 -5.5625 24.0625 C-1.9325 24.0625 1.6975 24.0625 5.4375 24.0625 C3.7875 19.7725 2.1375 15.4825 0.4375 11.0625 C0.1075 11.0625 -0.2225 11.0625 -0.5625 11.0625 Z " fill="#949699" transform="translate(965.5625,398.9375)"/>
<path d="M0 0 C0.33 0.66 0.66 1.32 1 2 C-0.4375 4.625 -0.4375 4.625 -2 7 C-4.68849519 6.53911511 -6.95077903 6.02271737 -9.4375 4.875 C-12.6333046 3.78374965 -14.75278164 4.24483294 -18 5 C-18.33 6.32 -18.66 7.64 -19 9 C-14.45059947 11.95459223 -9.9051998 13.39245891 -4.7421875 14.9375 C-2.0333966 15.98706001 -0.74416786 16.72004201 1 19 C2.50186547 23.50559641 2.71589695 27.34213337 0.8125 31.75 C-2.48200119 35.83972562 -5.64216137 37.13060181 -10.75 37.875 C-16.5768995 38.29182739 -21.99137805 37.36893831 -26.671875 33.68359375 C-28.0625 32.3125 -28.0625 32.3125 -30 30 C-28.68 28.35 -27.36 26.7 -26 25 C-22 27 -22 27 -20.1484375 28.05859375 C-17.71325561 29.12564618 -16.02020108 29.23615754 -13.375 29.1875 C-12.21097656 29.17783203 -12.21097656 29.17783203 -11.0234375 29.16796875 C-8.9312732 29.12050633 -8.9312732 29.12050633 -7 28 C-7 26.68 -7 25.36 -7 24 C-7.70125 23.75765625 -8.4025 23.5153125 -9.125 23.265625 C-24.94150418 17.67827298 -24.94150418 17.67827298 -27.1875 14.1171875 C-28.48544386 10.73504534 -28.66352606 7.52075051 -28 4 C-26.26587536 0.73239323 -23.91525721 -1.44067615 -20.75 -3.375 C-13.10560211 -5.11236316 -6.73563132 -4.11956023 0 0 Z " fill="#949699" transform="translate(922,403)"/>
<path d="M0 0 C3.1886751 -0.65075002 5.83341202 -0.8319857 9 0 C11.93358279 2.98474993 13.85736611 6.42894351 16 10 C17.30909115 11.68577457 18.63622714 13.35814765 20 15 C20.63808594 14.00097656 21.27617188 13.00195312 21.93359375 11.97265625 C22.76816273 10.66922829 23.60280177 9.36584519 24.4375 8.0625 C24.85837891 7.40314453 25.27925781 6.74378906 25.71289062 6.06445312 C28.88671875 1.11328125 28.88671875 1.11328125 30 0 C31.51928038 -0.07179964 33.04167482 -0.08392007 34.5625 -0.0625 C35.38878906 -0.05347656 36.21507812 -0.04445313 37.06640625 -0.03515625 C37.70449219 -0.02355469 38.34257813 -0.01195312 39 0 C35.838791 6.18605211 32.47386119 11.70972213 28.1875 17.1875 C22.94228772 24.49207415 22.71796672 31.21184298 23 40 C20.36 40 17.72 40 15 40 C15.04382812 38.94683594 15.08765625 37.89367187 15.1328125 36.80859375 C15.24400288 25.32651238 12.26353846 18.57758608 5.25146484 9.61962891 C0 2.823254 0 2.823254 0 0 Z " fill="#949699" transform="translate(1172,400)"/>
<path d="M0 0 C2.97 0 5.94 0 9 0 C9 2.97 9 5.94 9 9 C6.03 9 3.06 9 0 9 C0 6.03 0 3.06 0 0 Z " fill="#949699" transform="translate(1345,431)"/>
</svg>
